<?xml version="1.0" encoding="us-ascii" standalone="no"?><svg xmlns="http://www.w3.org/2000/svg" xmlns:xlink="http://www.w3.org/1999/xlink" contentStyleType="text/css" height="945px" preserveAspectRatio="none" style="width:1995px;height:945px;background:#FFFFFF;" version="1.1" viewBox="0 0 1995 945" width="1995px" zoomAndPan="magnify"><defs/><g><!--cluster Tasks--><g id="cluster_Tasks"><rect fill="none" height="549.95" rx="2.5" ry="2.5" style="stroke:#181818;stroke-width:1.0;" width="912.5" x="7" y="389.22"/><rect fill="none" height="10" style="stroke:#181818;stroke-width:1.0;" width="15" x="899.5" y="394.22"/><rect fill="none" height="2" style="stroke:#181818;stroke-width:1.0;" width="4" x="897.5" y="396.22"/><rect fill="none" height="2" style="stroke:#181818;stroke-width:1.0;" width="4" x="897.5" y="400.22"/><text fill="#000000" font-family="sans-serif" font-size="14" font-weight="bold" lengthAdjust="spacing" textLength="171" x="377.75" y="415.7552">&#1057;&#1080;&#1089;&#1090;&#1077;&#1084;&#1072; &#1074;&#1077;&#1076;&#1077;&#1085;&#1080;&#1103; &#1079;&#1072;&#1076;&#1072;&#1095;</text></g><!--cluster Reservations--><g id="cluster_Reservations"><rect fill="none" height="549.95" rx="2.5" ry="2.5" style="stroke:#181818;stroke-width:1.0;" width="554.5" x="1434.5" y="389.22"/><rect fill="none" height="10" style="stroke:#181818;stroke-width:1.0;" width="15" x="1969" y="394.22"/><rect fill="none" height="2" style="stroke:#181818;stroke-width:1.0;" width="4" x="1967" y="396.22"/><rect fill="none" height="2" style="stroke:#181818;stroke-width:1.0;" width="4" x="1967" y="400.22"/><text fill="#000000" font-family="sans-serif" font-size="14" font-weight="bold" lengthAdjust="spacing" textLength="170" x="1626.75" y="415.7552">&#1057;&#1080;&#1089;&#1090;&#1077;&#1084;&#1072; &#1073;&#1088;&#1086;&#1085;&#1080;&#1088;&#1086;&#1074;&#1072;&#1085;&#1080;&#1103;</text></g><text fill="#000000" font-family="sans-serif" font-size="14" lengthAdjust="spacing" textLength="88" x="494.5" y="368.2669">&#1044;&#1072;&#1085;&#1085;&#1099;&#1077; &#1055;&#1059;&#1060;</text><rect fill="#F1F1F1" height="12" style="stroke:#181818;stroke-width:1.5;" width="12" x="532.5" y="383.22"/><text fill="#000000" font-family="sans-serif" font-size="14" lengthAdjust="spacing" textLength="91" x="613" y="368.2669">&#1040;&#1074;&#1090;&#1086;&#1088;&#1080;&#1079;&#1072;&#1094;&#1080;&#1103;</text><rect fill="#F1F1F1" height="12" style="stroke:#181818;stroke-width:1.5;" width="12" x="652.5" y="383.22"/><text fill="#000000" font-family="sans-serif" font-size="14" lengthAdjust="spacing" textLength="128" x="855.5" y="641.2469">&#1044;&#1072;&#1085;&#1085;&#1099;&#1077; &#1086; &#1079;&#1072;&#1076;&#1072;&#1095;&#1072;&#1093;</text><rect fill="#F1F1F1" height="12" style="stroke:#181818;stroke-width:1.5;" width="12" x="913.5" y="656.2"/><!--entity TaskDB--><g id="elem_TaskDB"><rect fill="#F1F1F1" height="46.4883" rx="2.5" ry="2.5" style="stroke:#181818;stroke-width:0.5;" width="139" x="339.5" y="876.68"/><rect fill="#F1F1F1" height="10" style="stroke:#181818;stroke-width:0.5;" width="15" x="458.5" y="881.68"/><rect fill="#F1F1F1" height="2" style="stroke:#181818;stroke-width:0.5;" width="4" x="456.5" y="883.68"/><rect fill="#F1F1F1" height="2" style="stroke:#181818;stroke-width:0.5;" width="4" x="456.5" y="887.68"/><text fill="#000000" font-family="sans-serif" font-size="14" lengthAdjust="spacing" textLength="99" x="354.5" y="910.2152">&#1050;&#1072;&#1090;&#1072;&#1083;&#1086;&#1075; &#1079;&#1072;&#1076;&#1072;&#1095;</text></g><!--entity TaskSection--><g id="elem_TaskSection"><rect fill="#F1F1F1" height="46.4883" rx="2.5" ry="2.5" style="stroke:#181818;stroke-width:0.5;" width="269" x="513.5" y="876.68"/><rect fill="#F1F1F1" height="10" style="stroke:#181818;stroke-width:0.5;" width="15" x="762.5" y="881.68"/><rect fill="#F1F1F1" height="2" style="stroke:#181818;stroke-width:0.5;" width="4" x="760.5" y="883.68"/><rect fill="#F1F1F1" height="2" style="stroke:#181818;stroke-width:0.5;" width="4" x="760.5" y="887.68"/><text fill="#000000" font-family="sans-serif" font-size="14" lengthAdjust="spacing" textLength="229" x="528.5" y="910.2152">&#1056;&#1072;&#1079;&#1076;&#1077;&#1083; &#1087;&#1086; &#1091;&#1087;&#1088;&#1072;&#1074;&#1083;&#1077;&#1085;&#1080;&#1102; &#1079;&#1072;&#1076;&#1072;&#1095;&#1072;&#1084;&#1080;</text></g><!--entity TaskService--><g id="elem_TaskService"><rect fill="#F1F1F1" height="46.4883" rx="2.5" ry="2.5" style="stroke:#181818;stroke-width:0.5;" width="220" x="456" y="638.95"/><rect fill="#F1F1F1" height="10" style="stroke:#181818;stroke-width:0.5;" width="15" x="656" y="643.95"/><rect fill="#F1F1F1" height="2" style="stroke:#181818;stroke-width:0.5;" width="4" x="654" y="645.95"/><rect fill="#F1F1F1" height="2" style="stroke:#181818;stroke-width:0.5;" width="4" x="654" y="649.95"/><text fill="#000000" font-family="sans-serif" font-size="14" lengthAdjust="spacing" textLength="180" x="471" y="672.4852">&#1057;&#1077;&#1088;&#1074;&#1080;&#1089; &#1087;&#1086; &#1074;&#1077;&#1076;&#1077;&#1085;&#1080;&#1102; &#1079;&#1072;&#1076;&#1072;&#1095;</text></g><!--entity taskWrite--><g id="elem_taskWrite"><ellipse cx="543" cy="781.06" fill="#F1F1F1" rx="8" ry="8" style="stroke:#181818;stroke-width:0.5;"/><text fill="#000000" font-family="sans-serif" font-size="14" lengthAdjust="spacing" textLength="39" x="523.5" y="811.5952">CRUD</text></g><g id="elem_GMN13"><path d="M624.5,745.44 L624.5,777.06 L552.35,781.06 L624.5,785.06 L624.5,816.6822 A0,0 0 0 0 624.5,816.6822 L689.5,816.6822 A0,0 0 0 0 689.5,816.6822 L689.5,755.44 L679.5,745.44 L624.5,745.44 A0,0 0 0 0 624.5,745.44 " fill="#FEFFDD" style="stroke:#181818;stroke-width:0.5;"/><path d="M679.5,745.44 L679.5,755.44 L689.5,755.44 L679.5,745.44 " fill="#FEFFDD" style="stroke:#181818;stroke-width:0.5;"/><text fill="#000000" font-family="sans-serif" font-size="13" lengthAdjust="spacing" textLength="40" x="630.5" y="763.0084">Create</text><text fill="#000000" font-family="sans-serif" font-size="13" lengthAdjust="spacing" textLength="30" x="630.5" y="778.3189">Read</text><text fill="#000000" font-family="sans-serif" font-size="13" lengthAdjust="spacing" textLength="44" x="630.5" y="793.6295">Update</text><text fill="#000000" font-family="sans-serif" font-size="13" lengthAdjust="spacing" textLength="40" x="630.5" y="808.94">Delete</text></g><!--entity taskAuth--><g id="elem_taskAuth"><ellipse cx="566" cy="533.95" fill="#F1F1F1" rx="8" ry="8" style="stroke:#181818;stroke-width:0.5;"/><text fill="#000000" font-family="sans-serif" font-size="14" lengthAdjust="spacing" textLength="91" x="520.5" y="564.4852">&#1040;&#1074;&#1090;&#1086;&#1088;&#1080;&#1079;&#1072;&#1094;&#1080;&#1103;</text></g><!--entity tasksData--><g id="elem_tasksData"><ellipse cx="767" cy="662.2" fill="#F1F1F1" rx="8" ry="8" style="stroke:#181818;stroke-width:0.5;"/><text fill="#000000" font-family="sans-serif" font-size="14" lengthAdjust="spacing" textLength="128" x="703" y="692.7352">&#1044;&#1072;&#1085;&#1085;&#1099;&#1077; &#1086; &#1079;&#1072;&#1076;&#1072;&#1095;&#1072;&#1093;</text></g><!--entity tasksInData--><g id="elem_tasksInData"><ellipse cx="426" cy="533.95" fill="#F1F1F1" rx="8" ry="8" style="stroke:#181818;stroke-width:0.5;"/><text fill="#000000" font-family="sans-serif" font-size="14" lengthAdjust="spacing" textLength="88" x="382" y="564.4852">&#1044;&#1072;&#1085;&#1085;&#1099;&#1077; &#1055;&#1059;&#1060;</text></g><g id="elem_GMN19"><path d="M23,513.64 L23,554.2611 A0,0 0 0 0 23,554.2611 L339,554.2611 A0,0 0 0 0 339,554.2611 L339,523.64 L329,513.64 L234.66,513.64 L532.79,392.7 L226.66,513.64 L23,513.64 A0,0 0 0 0 23,513.64 " fill="#FEFFDD" style="stroke:#181818;stroke-width:0.5;"/><path d="M329,513.64 L329,523.64 L339,523.64 L329,513.64 " fill="#FEFFDD" style="stroke:#181818;stroke-width:0.5;"/><text fill="#000000" font-family="sans-serif" font-size="13" lengthAdjust="spacing" textLength="295" x="29" y="531.2084">&#1054;&#1073;&#1097;&#1080;&#1077; &#1076;&#1072;&#1085;&#1085;&#1099;&#1077; &#1087;&#1083;&#1072;&#1090;&#1092;&#1086;&#1088;&#1084;&#1099; &#1091;&#1087;&#1088;&#1072;&#1074;&#1083;&#1077;&#1085;&#1080;&#1103; &#1092;&#1083;&#1086;&#1090;&#1072;</text><text fill="#000000" font-family="sans-serif" font-size="13" lengthAdjust="spacing" textLength="185" x="29" y="546.5189">(&#1073;&#1077;&#1089;&#1087;&#1080;&#1083;&#1086;&#1090;&#1085;&#1099;&#1093; &#1072;&#1074;&#1090;&#1086;&#1084;&#1086;&#1073;&#1080;&#1083;&#1077;&#1081;).</text></g><text fill="#000000" font-family="sans-serif" font-size="14" lengthAdjust="spacing" textLength="91" x="1458" y="368.2669">&#1040;&#1074;&#1090;&#1086;&#1088;&#1080;&#1079;&#1072;&#1094;&#1080;&#1103;</text><rect fill="#F1F1F1" height="12" style="stroke:#181818;stroke-width:1.5;" width="12" x="1497.5" y="383.22"/><text fill="#000000" font-family="sans-serif" font-size="14" lengthAdjust="spacing" textLength="88" x="1560.5" y="368.2669">&#1044;&#1072;&#1085;&#1085;&#1099;&#1077; &#1055;&#1059;&#1060;</text><rect fill="#F1F1F1" height="12" style="stroke:#181818;stroke-width:1.5;" width="12" x="1598.5" y="383.22"/><text fill="#000000" font-family="sans-serif" font-size="14" lengthAdjust="spacing" textLength="163" x="1353" y="641.2469">&#1044;&#1072;&#1085;&#1085;&#1099;&#1077; &#1073;&#1088;&#1086;&#1085;&#1080;&#1088;&#1086;&#1074;&#1072;&#1085;&#1080;&#1081;</text><rect fill="#F1F1F1" height="12" style="stroke:#181818;stroke-width:1.5;" width="12" x="1428.5" y="656.2"/><!--entity ReservationDB--><g id="elem_ReservationDB"><rect fill="#F1F1F1" height="46.4883" rx="2.5" ry="2.5" style="stroke:#181818;stroke-width:0.5;" width="152" x="1791" y="876.68"/><rect fill="#F1F1F1" height="10" style="stroke:#181818;stroke-width:0.5;" width="15" x="1923" y="881.68"/><rect fill="#F1F1F1" height="2" style="stroke:#181818;stroke-width:0.5;" width="4" x="1921" y="883.68"/><rect fill="#F1F1F1" height="2" style="stroke:#181818;stroke-width:0.5;" width="4" x="1921" y="887.68"/><text fill="#000000" font-family="sans-serif" font-size="14" lengthAdjust="spacing" textLength="112" x="1806" y="910.2152">&#1050;&#1072;&#1090;&#1072;&#1083;&#1086;&#1075; &#1073;&#1088;&#1086;&#1085;&#1077;&#1081;</text></g><!--entity ReservationSection--><g id="elem_ReservationSection"><rect fill="#F1F1F1" height="46.4883" rx="2.5" ry="2.5" style="stroke:#181818;stroke-width:0.5;" width="220" x="1536" y="876.68"/><rect fill="#F1F1F1" height="10" style="stroke:#181818;stroke-width:0.5;" width="15" x="1736" y="881.68"/><rect fill="#F1F1F1" height="2" style="stroke:#181818;stroke-width:0.5;" width="4" x="1734" y="883.68"/><rect fill="#F1F1F1" height="2" style="stroke:#181818;stroke-width:0.5;" width="4" x="1734" y="887.68"/><text fill="#000000" font-family="sans-serif" font-size="14" lengthAdjust="spacing" textLength="180" x="1551" y="910.2152">&#1056;&#1072;&#1079;&#1076;&#1077;&#1083; &#1087;&#1086; &#1073;&#1088;&#1086;&#1085;&#1080;&#1088;&#1086;&#1074;&#1072;&#1085;&#1080;&#1102;</text></g><!--entity ReservationService--><g id="elem_ReservationService"><rect fill="#F1F1F1" height="46.4883" rx="2.5" ry="2.5" style="stroke:#181818;stroke-width:0.5;" width="222" x="1670" y="638.95"/><rect fill="#F1F1F1" height="10" style="stroke:#181818;stroke-width:0.5;" width="15" x="1872" y="643.95"/><rect fill="#F1F1F1" height="2" style="stroke:#181818;stroke-width:0.5;" width="4" x="1870" y="645.95"/><rect fill="#F1F1F1" height="2" style="stroke:#181818;stroke-width:0.5;" width="4" x="1870" y="649.95"/><text fill="#000000" font-family="sans-serif" font-size="14" lengthAdjust="spacing" textLength="182" x="1685" y="672.4852">&#1057;&#1077;&#1088;&#1074;&#1080;&#1089; &#1087;&#1086; &#1073;&#1088;&#1086;&#1085;&#1080;&#1088;&#1086;&#1074;&#1072;&#1085;&#1080;&#1102;</text></g><!--entity reservationWrite--><g id="elem_reservationWrite"><ellipse cx="1824" cy="781.06" fill="#F1F1F1" rx="8" ry="8" style="stroke:#181818;stroke-width:0.5;"/><text fill="#000000" font-family="sans-serif" font-size="14" lengthAdjust="spacing" textLength="39" x="1804.5" y="811.5952">CRUD</text></g><!--entity reservationAuth--><g id="elem_reservationAuth"><ellipse cx="1781" cy="533.95" fill="#F1F1F1" rx="8" ry="8" style="stroke:#181818;stroke-width:0.5;"/><text fill="#000000" font-family="sans-serif" font-size="14" lengthAdjust="spacing" textLength="91" x="1735.5" y="564.4852">&#1040;&#1074;&#1090;&#1086;&#1088;&#1080;&#1079;&#1072;&#1094;&#1080;&#1103;</text></g><!--entity reservationsInData--><g id="elem_reservationsInData"><ellipse cx="1921" cy="533.95" fill="#F1F1F1" rx="8" ry="8" style="stroke:#181818;stroke-width:0.5;"/><text fill="#000000" font-family="sans-serif" font-size="14" lengthAdjust="spacing" textLength="88" x="1877" y="564.4852">&#1044;&#1072;&#1085;&#1085;&#1099;&#1077; &#1055;&#1059;&#1060;</text></g><!--entity reservationsData--><g id="elem_reservationsData"><ellipse cx="1581" cy="662.2" fill="#F1F1F1" rx="8" ry="8" style="stroke:#181818;stroke-width:0.5;"/><text fill="#000000" font-family="sans-serif" font-size="14" lengthAdjust="spacing" textLength="163" x="1499.5" y="692.7352">&#1044;&#1072;&#1085;&#1085;&#1099;&#1077; &#1073;&#1088;&#1086;&#1085;&#1080;&#1088;&#1086;&#1074;&#1072;&#1085;&#1080;&#1081;</text></g><!--entity DB--><g id="elem_DB"><rect fill="#F1F1F1" height="46.4883" rx="2.5" ry="2.5" style="stroke:#181818;stroke-width:0.5;" width="129" x="1183.5" y="7"/><rect fill="#F1F1F1" height="10" style="stroke:#181818;stroke-width:0.5;" width="15" x="1292.5" y="12"/><rect fill="#F1F1F1" height="2" style="stroke:#181818;stroke-width:0.5;" width="4" x="1290.5" y="14"/><rect fill="#F1F1F1" height="2" style="stroke:#181818;stroke-width:0.5;" width="4" x="1290.5" y="18"/><text fill="#000000" font-family="sans-serif" font-size="14" lengthAdjust="spacing" textLength="89" x="1198.5" y="40.5352">&#1041;&#1072;&#1079;&#1072; &#1076;&#1072;&#1085;&#1085;&#1099;&#1093;</text></g><!--entity write--><g id="elem_write"><ellipse cx="1248" cy="142.49" fill="#F1F1F1" rx="8" ry="8" style="stroke:#181818;stroke-width:0.5;"/><text fill="#000000" font-family="sans-serif" font-size="14" lengthAdjust="spacing" textLength="39" x="1228.5" y="173.0252">CRUD</text></g><!--entity ScheduleSection--><g id="elem_ScheduleSection"><rect fill="#F1F1F1" height="46.4883" rx="2.5" ry="2.5" style="stroke:#181818;stroke-width:0.5;" width="174" x="1161" y="365.97"/><rect fill="#F1F1F1" height="10" style="stroke:#181818;stroke-width:0.5;" width="15" x="1315" y="370.97"/><rect fill="#F1F1F1" height="2" style="stroke:#181818;stroke-width:0.5;" width="4" x="1313" y="372.97"/><rect fill="#F1F1F1" height="2" style="stroke:#181818;stroke-width:0.5;" width="4" x="1313" y="376.97"/><text fill="#000000" font-family="sans-serif" font-size="14" lengthAdjust="spacing" textLength="134" x="1176" y="399.5052">&#1056;&#1072;&#1079;&#1076;&#1077;&#1083; &#1088;&#1072;&#1089;&#1087;&#1080;&#1089;&#1072;&#1085;&#1080;&#1103;</text></g><!--entity ScheduleSection.taskLinks--><g id="elem_ScheduleSection.taskLinks"><ellipse cx="1027" cy="662.2" fill="#F1F1F1" rx="8" ry="8" style="stroke:#181818;stroke-width:0.5;"/><text fill="#000000" font-family="sans-serif" font-size="14" lengthAdjust="spacing" textLength="83" x="899.5" y="692.7352">&#1044;&#1072;&#1085;&#1085;&#1099;&#1077; &#1076;&#1083;&#1103;</text><text fill="#000000" font-family="sans-serif" font-size="14" lengthAdjust="spacing" textLength="251" x="903.5" y="709.2234">&#1089;&#1086;&#1077;&#1076;&#1080;&#1085;&#1077;&#1085;&#1080;&#1103; &#1088;&#1072;&#1089;&#1087;&#1080;&#1089;&#1072;&#1085;&#1080;&#1103; &#1089; &#1079;&#1072;&#1076;&#1072;&#1095;&#1072;&#1084;&#1080;</text></g><!--entity ScheduleSection.data--><g id="elem_ScheduleSection.data"><ellipse cx="1239" cy="533.95" fill="#F1F1F1" rx="8" ry="8" style="stroke:#181818;stroke-width:0.5;"/><text fill="#000000" font-family="sans-serif" font-size="14" lengthAdjust="spacing" textLength="83" x="1151" y="564.4852">&#1044;&#1072;&#1085;&#1085;&#1099;&#1077; &#1076;&#1083;&#1103;</text><text fill="#000000" font-family="sans-serif" font-size="14" lengthAdjust="spacing" textLength="172" x="1155" y="580.9734">&#1089;&#1086;&#1089;&#1090;&#1072;&#1074;&#1083;&#1077;&#1085;&#1080;&#1103; &#1088;&#1072;&#1089;&#1087;&#1080;&#1089;&#1072;&#1085;&#1080;&#1103;</text></g><!--entity A--><g id="elem_A"><rect fill="#F1F1F1" height="46.4883" rx="2.5" ry="2.5" style="stroke:#181818;stroke-width:0.5;" width="194" x="973" y="119.24"/><rect fill="#F1F1F1" height="10" style="stroke:#181818;stroke-width:0.5;" width="15" x="1147" y="124.24"/><rect fill="#F1F1F1" height="2" style="stroke:#181818;stroke-width:0.5;" width="4" x="1145" y="126.24"/><rect fill="#F1F1F1" height="2" style="stroke:#181818;stroke-width:0.5;" width="4" x="1145" y="130.24"/><text fill="#000000" font-family="sans-serif" font-size="14" lengthAdjust="spacing" textLength="154" x="988" y="152.7752">&#1057;&#1080;&#1089;&#1090;&#1077;&#1084;&#1072; &#1072;&#1074;&#1090;&#1086;&#1088;&#1080;&#1079;&#1072;&#1094;&#1080;&#1080;</text></g><!--entity AdminPanel--><g id="elem_AdminPanel"><rect fill="#F1F1F1" height="79.4648" rx="2.5" ry="2.5" style="stroke:#181818;stroke-width:0.5;" width="149" x="977.5" y="349.49"/><rect fill="#F1F1F1" height="10" style="stroke:#181818;stroke-width:0.5;" width="15" x="1106.5" y="354.49"/><rect fill="#F1F1F1" height="2" style="stroke:#181818;stroke-width:0.5;" width="4" x="1104.5" y="356.49"/><rect fill="#F1F1F1" height="2" style="stroke:#181818;stroke-width:0.5;" width="4" x="1104.5" y="360.49"/><text fill="#000000" font-family="sans-serif" font-size="14" lengthAdjust="spacing" textLength="104" x="992.5" y="383.0252">&#1040;&#1076;&#1084;&#1080;&#1085;-&#1087;&#1072;&#1085;&#1077;&#1083;&#1100;</text><text fill="#000000" font-family="sans-serif" font-size="14" lengthAdjust="spacing" textLength="109" x="992.5" y="399.5134">&#1076;&#1083;&#1103; &#1091;&#1087;&#1088;&#1072;&#1074;&#1083;&#1077;&#1085;&#1080;&#1103;</text><text fill="#000000" font-family="sans-serif" font-size="14" lengthAdjust="spacing" textLength="60" x="996.5" y="416.0017">&#1087;&#1088;&#1072;&#1074;&#1072;&#1084;&#1080;</text></g><!--entity a--><g id="elem_a"><ellipse cx="1070" cy="260.49" fill="#F1F1F1" rx="8" ry="8" style="stroke:#181818;stroke-width:0.5;"/><text fill="#000000" font-family="sans-serif" font-size="14" lengthAdjust="spacing" textLength="189" x="975.5" y="291.0252">&#1040;&#1074;&#1090;&#1086;&#1088;&#1080;&#1079;&#1072;&#1094;&#1080;&#1103; &#1087;&#1086;&#1083;&#1100;&#1079;&#1086;&#1074;&#1072;&#1090;&#1077;&#1083;&#1103;</text></g><!--link DB to write--><g id="link_DB_write"><path d="M1248,53.82 C1248,78.64 1248,117.17 1248,133.62 " fill="none" id="DB-write" style="stroke:#181818;stroke-width:1.0;"/></g><!--link TaskService to TaskSection--><g id="link_TaskService_TaskSection"><path d="M570.53,685.75 C576.96,716.07 589.87,771.41 607,816.68 C614.9,837.57 626.43,860.21 635.24,876.44 " fill="none" id="TaskService-TaskSection" style="stroke:#181818;stroke-width:1.0;"/></g><!--link Tasks.auth to taskAuth--><g id="link_Tasks.auth_taskAuth"><path d="M655.91,394.97 C642.35,415.77 588.15,498.96 571.14,525.07 " fill="none" id="Tasks.auth-taskAuth" style="stroke:#181818;stroke-width:1.0;"/></g><!--reverse link taskAuth to TaskService--><g id="link_taskAuth_TaskService"><path d="M566,553.68 C566,576.38 566,614.59 566,638.82 " fill="none" id="taskAuth-backto-TaskService" style="stroke:#181818;stroke-width:1.0;"/><path d="M557.5428,546.9282 A9,9 0 0 0 574.4572 546.9282" fill="none" style="stroke:#181818;stroke-width:1.5;"/></g><!--link Tasks.inData to tasksInData--><g id="link_Tasks.inData_tasksInData"><path d="M535.24,394.97 C518.77,415.77 452.91,498.96 432.24,525.07 " fill="none" id="Tasks.inData-tasksInData" style="stroke:#181818;stroke-width:1.0;"/></g><!--reverse link tasksInData to TaskService--><g id="link_tasksInData_TaskService"><path d="M442.71,550.02 C467.07,571.99 512.53,612.98 540.92,638.58 " fill="none" id="tasksInData-backto-TaskService" style="stroke:#181818;stroke-width:1.0;"/><path d="M432.3736,552.1886 A9,9 0 0 0 443.7141 539.639" fill="none" style="stroke:#181818;stroke-width:1.5;"/></g><!--link TaskService to tasksData--><g id="link_TaskService_tasksData"><path d="M676.31,662.2 C703.47,662.2 730.63,662.2 757.79,662.2 " fill="none" id="TaskService-tasksData" style="stroke:#181818;stroke-width:1.0;"/></g><!--reverse link tasksData to Tasks.data--><g id="link_tasksData_Tasks.data"><path d="M787.04,662.2 C821.68,662.2 893.28,662.2 913.55,662.2 " fill="none" id="tasksData-backto-Tasks.data" style="stroke:#181818;stroke-width:1.0;"/><path d="M780.1982,670.6572 A9,9 0 0 0 780.1982 653.7428" fill="none" style="stroke:#181818;stroke-width:1.5;"/></g><!--link TaskService to taskWrite--><g id="link_TaskService_taskWrite"><path d="M561.57,685.73 C557.24,707.68 550.75,740.68 546.7,761.27 " fill="none" id="TaskService-to-taskWrite" style="stroke:#181818;stroke-width:1.0;"/><path d="M553.5221,769.3803 A9,9 0 0 0 536.925 766.1189" fill="none" style="stroke:#181818;stroke-width:1.5;"/></g><!--link taskWrite to TaskDB--><g id="link_taskWrite_TaskDB"><path d="M533.79,790.09 C513.69,807.63 465.25,849.87 434.98,876.27 " fill="none" id="taskWrite-TaskDB" style="stroke:#181818;stroke-width:1.0;"/></g><!--reverse link write to Tasks.inData--><g id="link_write_Tasks.inData"><path d="M1229.31,152.61 C1216.71,158.53 1199.61,166.1 1184,171.49 C1082.91,206.36 1053.48,200.96 951,231.49 C794.48,278.1 751.07,280.58 603,349.49 C580.16,360.12 555.18,376.88 544.42,384.37 " fill="none" id="write-backto-Tasks.inData" style="stroke:#181818;stroke-width:1.0;"/><path d="M1231.6463,141.6364 A9,9 0 0 0 1238.939 156.898" fill="none" style="stroke:#181818;stroke-width:1.5;"/></g><!--link ScheduleSection to ScheduleSection.taskLinks--><g id="link_ScheduleSection_ScheduleSection.taskLinks"><path d="M1213.54,412.85 C1187.37,431.21 1151.63,458.89 1126,488.95 C1083.36,538.96 1049.35,609.94 1034.75,642.98 " fill="none" id="ScheduleSection-to-ScheduleSection.taskLinks" style="stroke:#181818;stroke-width:1.0;"/><path d="M1039.3936,652.5226 A9,9 0 0 0 1023.8769 645.7898" fill="none" style="stroke:#181818;stroke-width:1.5;"/></g><!--link ScheduleSection.taskLinks to Tasks.data--><g id="link_ScheduleSection.taskLinks_Tasks.data"><path d="M1017.71,662.2 C996.42,662.2 940.42,662.2 924.99,662.2 " fill="none" id="ScheduleSection.taskLinks-Tasks.data" style="stroke:#181818;stroke-width:1.0;"/></g><!--link ReservationService to ReservationSection--><g id="link_ReservationService_ReservationSection"><path d="M1768.06,685.8 C1742.25,730.86 1684.68,831.39 1658.91,876.39 " fill="none" id="ReservationService-ReservationSection" style="stroke:#181818;stroke-width:1.0;"/></g><!--link Reservations.auth to reservationAuth--><g id="link_Reservations.auth_reservationAuth"><path d="M1508.8,395.12 C1516.88,403.12 1533.97,419.11 1551,428.95 C1616.76,466.95 1642.95,455.24 1711,488.95 C1734.15,500.42 1759.35,517.51 1772.28,526.65 " fill="none" id="Reservations.auth-reservationAuth" style="stroke:#181818;stroke-width:1.0;"/></g><!--reverse link reservationAuth to ReservationService--><g id="link_reservationAuth_ReservationService"><path d="M1781,553.68 C1781,576.38 1781,614.59 1781,638.82 " fill="none" id="reservationAuth-backto-ReservationService" style="stroke:#181818;stroke-width:1.0;"/><path d="M1772.5428,546.9282 A9,9 0 0 0 1789.4572 546.9282" fill="none" style="stroke:#181818;stroke-width:1.5;"/></g><!--link Reservations.inData to reservationsInData--><g id="link_Reservations.inData_reservationsInData"><path d="M1610.2,391.89 C1636.66,400.48 1758.73,441.1 1852,488.95 C1874.75,500.62 1899.62,517.63 1912.38,526.71 " fill="none" id="Reservations.inData-reservationsInData" style="stroke:#181818;stroke-width:1.0;"/></g><!--reverse link reservationsInData to ReservationService--><g id="link_reservationsInData_ReservationService"><path d="M1904.29,550.02 C1879.93,571.99 1834.47,612.98 1806.08,638.58 " fill="none" id="reservationsInData-backto-ReservationService" style="stroke:#181818;stroke-width:1.0;"/><path d="M1903.2859,539.639 A9,9 0 0 0 1914.6264 552.1886" fill="none" style="stroke:#181818;stroke-width:1.5;"/></g><!--link reservationsData to ReservationService--><g id="link_reservationsData_ReservationService"><path d="M1590.38,662.2 C1616.81,662.2 1643.24,662.2 1669.68,662.2 " fill="none" id="reservationsData-ReservationService" style="stroke:#181818;stroke-width:1.0;"/></g><!--reverse link reservationsData to Reservations.data--><g id="link_reservationsData_Reservations.data"><path d="M1560.87,662.2 C1527.06,662.2 1458.56,662.2 1440.47,662.2 " fill="none" id="reservationsData-backto-Reservations.data" style="stroke:#181818;stroke-width:1.0;"/><path d="M1567.5318,653.7428 A9,9 0 0 0 1567.5318 670.6572" fill="none" style="stroke:#181818;stroke-width:1.5;"/></g><!--link ReservationService to reservationWrite--><g id="link_ReservationService_reservationWrite"><path d="M1789.29,685.73 C1797.49,708.01 1809.87,741.66 1817.42,762.17 " fill="none" id="ReservationService-to-reservationWrite" style="stroke:#181818;stroke-width:1.0;"/><path d="M1828.0221,765.4884 A9,9 0 0 0 1812.1501 771.3347" fill="none" style="stroke:#181818;stroke-width:1.5;"/></g><!--link reservationWrite to ReservationDB--><g id="link_reservationWrite_ReservationDB"><path d="M1826.82,789.73 C1833.21,807.1 1848.99,849.98 1858.77,876.55 " fill="none" id="reservationWrite-ReservationDB" style="stroke:#181818;stroke-width:1.0;"/></g><!--reverse link write to Reservations.inData--><g id="link_write_Reservations.inData"><path d="M1265.84,155.52 C1312.61,187.1 1442.6,275.05 1550,349.49 C1567.66,361.73 1588.35,376.38 1598.59,383.66 " fill="none" id="write-backto-Reservations.inData" style="stroke:#181818;stroke-width:1.0;"/><path d="M1255.7549,158.2332 A9,9 0 0 0 1265.2098 144.2081" fill="none" style="stroke:#181818;stroke-width:1.5;"/></g><!--link ScheduleSection to ScheduleSection.data--><g id="link_ScheduleSection_ScheduleSection.data"><path d="M1246.57,412.84 C1244.81,440.8 1241.84,487.9 1240.19,514.04 " fill="none" id="ScheduleSection-to-ScheduleSection.data" style="stroke:#181818;stroke-width:1.0;"/><path d="M1248.1341,521.47 A9,9 0 0 0 1231.2532 520.4059" fill="none" style="stroke:#181818;stroke-width:1.5;"/></g><!--link ScheduleSection.data to Reservations.data--><g id="link_ScheduleSection.data_Reservations.data"><path d="M1247.93,540.7 C1281.48,562.31 1399.54,638.36 1428.53,657.03 " fill="none" id="ScheduleSection.data-Reservations.data" style="stroke:#181818;stroke-width:1.0;"/></g><!--link A to a--><g id="link_A_a"><path d="M1070,166.13 C1070,192.37 1070,234.23 1070,251.57 " fill="none" id="A-a" style="stroke:#181818;stroke-width:1.0;"/></g><!--reverse link a to Tasks.auth--><g id="link_a_Tasks.auth"><path d="M1050.75,267.42 C975.86,290.51 705.98,373.73 664.4,386.56 " fill="none" id="a-backto-Tasks.auth" style="stroke:#181818;stroke-width:1.0;"/><path d="M1054.5993,257.0731 A9,9 0 0 0 1059.577 273.2386" fill="none" style="stroke:#181818;stroke-width:1.5;"/></g><!--reverse link a to Reservations.auth--><g id="link_a_Reservations.auth"><path d="M1089.18,267.09 C1166.25,289.59 1451.42,372.87 1497.65,386.36 " fill="none" id="a-backto-Reservations.auth" style="stroke:#181818;stroke-width:1.0;"/><path d="M1080.257,273.0008 A9,9 0 0 0 1084.9931 256.7629" fill="none" style="stroke:#181818;stroke-width:1.5;"/></g><!--reverse link a to ScheduleSection--><g id="link_a_ScheduleSection"><path d="M1087.42,273.89 C1117.27,295.14 1178.6,338.8 1216.23,365.6 " fill="none" id="a-backto-ScheduleSection" style="stroke:#181818;stroke-width:1.0;"/><path d="M1077.1907,276.2743 A9,9 0 0 0 1087.0037 262.4974" fill="none" style="stroke:#181818;stroke-width:1.5;"/></g><!--reverse link a to AdminPanel--><g id="link_a_AdminPanel"><path d="M1067.35,280.17 C1064.78,298.25 1060.81,326.2 1057.55,349.15 " fill="none" id="a-backto-AdminPanel" style="stroke:#181818;stroke-width:1.0;"/><path d="M1060.0624,272.2612 A9,9 0 0 0 1076.8069 274.6533" fill="none" style="stroke:#181818;stroke-width:1.5;"/></g><!--reverse link write to ScheduleSection--><g id="link_write_ScheduleSection"><path d="M1248,162.19 C1248,206.56 1248,318.02 1248,365.85 " fill="none" id="write-backto-ScheduleSection" style="stroke:#181818;stroke-width:1.0;"/><path d="M1239.5428,155.4282 A9,9 0 0 0 1256.4572 155.4282" fill="none" style="stroke:#181818;stroke-width:1.5;"/></g><!--SRC=[ZLVTQXD15BxVfnXwiosO-0pHt0WAqYfUfBbOizDcCTqDoLGHAMZzfz9M40I5gkW3fBN5QDhq5MRVo7FExC_ixEocWRIPcVFxdNE-dUt8Zt8Y_yW9awVmuq9Un7lnwoxpngnzmrbUOKitL- -tbt3zP1G8xZYTzeqkQpJIPI_Q6aOX3mLRaZ_aD7uHxyepUOu6J-37ANmlOFk0eHFq4RybQ_UyyQCnU-Om-0oZaGX2CF0f3K6UCVbD_fI_Sjbc4BOzuHKL3kK9-9l7p-KKxSTlq9McussBVgOHRGlJnrmB2xwlDLKVdP5kHtw1irsGcycv_AsfT5Dnm4f9VYSqCUiPavTWFtufBo6y2Q0nIx3OBpW5hAQPdJNU4q4K9iP-o3DGFK5KbR42fFksGDRuw77GuohmGla4d3wWck5H60dEHi5cNx1empZ3pyqHzxJbAlVyR75_wEjdRJxWoPA7FbdElDSK27ssqlAGxEBAeCuuwuAoKjuo97ahxnZALqH3pBRKJlYHH_8uVWzHdccJW8jBg1jKFtv5MPp7UxQI7Z0uX-x0BibCBijZAE0Bi31DpcYu66eYA53vEOXCoShVbMOHGjK3MarnwXhf3hL9LmdbhOvpMS0rNR2LN5KPqrKL5Aco3fkshZ9XX4WzrJ0gbQt0I7cyZ1oNjNRCj6d9qWY0WfmTXnY8mYfKr2bE8LPA5G7-JbIrQ5pMUdtkRmzuEdFbTZgLi_XWFMIWEAV1cy9PLd2BNOQ3QipsaiLN4rEw7OIFnevnGlbNIpivUAmnu1k0T8rm3JSVG_Xp2Xh_dwG9KB2hV0pLyD1QYQ6hvrdNAl9k7RKNj0o6j_2rDMpvjsogXhrJ6p1pNKElciOh0DitBImYy2kRgQBnKIwKC_O2gjLqQXWtBuechvD1MQMk7BgHTbwDSf89hvL1J0Ycr5X80xQKZ3r5M1P_5hCv0rRaNjvUODwUg1hP4ZIcXvGggrhQ3k9okJbCopcD5hg-oAQscLp0ZaGjnWFHmezMBgIyhaA32W3RBcluqPFGYfVBQbXmKXwPXB1RG7mkFSLTTiVpEGi4Su6GN3QEcEXx0ZRSCGDg4ttE7aP2H5lDHAE2ks3-0R4Fu8X6XQAO9PYqceDeCu7QDF8TvFx0dGDq4UHujpRk9bHxUo2Sn4p7I3b-1yjNHTA76iefFRVm0WHNdJtZPO3U1lW6N4tuAB5BxV0PD4nxb2nQr2vH51aFUwEdGy5zBScEdRI83N64CnhKd7v55iSdyJM4T4Ak0HhoOO982aSO8zop_a7wrnbTlFvXbwOifQ6bbO4wqBIddx9E2aat0plRoUv1jgmBUpZc7ItNt9Y-cJ0JXgfErOB6DIkvotRmydEL7bS8e_GX5EeSuMmWclHO13JNGpNUrhikLZVTp5zVMlvM4DxrGZvmgXz7zLE0TxSMvGg_FErcHzS9hqnEsdx7u8Lkkf_7HT3g5oYei7gBTSlCePrcp6ZpuXOyQ5h_0G00]--></g></svg>