<?xml version="1.0" encoding="us-ascii" standalone="no"?><svg xmlns="http://www.w3.org/2000/svg" xmlns:xlink="http://www.w3.org/1999/xlink" contentStyleType="text/css" height="390px" preserveAspectRatio="none" style="width:947px;height:390px;background:#FFFFFF;" version="1.1" viewBox="0 0 947 390" width="947px" zoomAndPan="magnify"><defs/><g><!--cluster Tasks--><g id="cluster_Tasks"><rect fill="#FFFFFF" height="296.95" style="stroke:#181818;stroke-width:0.5;" width="262" x="7" y="7"/><text fill="#000000" font-family="sans-serif" font-size="14" font-weight="bold" lengthAdjust="spacing" textLength="171" x="52.5" y="22.5352">&#1057;&#1080;&#1089;&#1090;&#1077;&#1084;&#1072; &#1074;&#1077;&#1076;&#1077;&#1085;&#1080;&#1103; &#1079;&#1072;&#1076;&#1072;&#1095;</text></g><!--cluster Reservations--><g id="cluster_Reservations"><rect fill="#FFFFFF" height="296.95" style="stroke:#181818;stroke-width:0.5;" width="262" x="679" y="7"/><text fill="#000000" font-family="sans-serif" font-size="14" font-weight="bold" lengthAdjust="spacing" textLength="170" x="725" y="22.5352">&#1057;&#1080;&#1089;&#1090;&#1077;&#1084;&#1072; &#1073;&#1088;&#1086;&#1085;&#1080;&#1088;&#1086;&#1074;&#1072;&#1085;&#1080;&#1103;</text></g><!--entity TasksSection--><g id="elem_TasksSection"><rect fill="#FFFFFF" height="36.4883" style="stroke:#181818;stroke-width:0.5;" width="229" x="23.5" y="42"/><text fill="#000000" font-family="sans-serif" font-size="14" lengthAdjust="spacing" textLength="209" x="33.5" y="65.5352">&#1055;&#1086;&#1083;&#1100;&#1079;&#1086;&#1074;&#1072;&#1090;&#1077;&#1083;&#1100;&#1089;&#1082;&#1080;&#1081; &#1080;&#1085;&#1090;&#1077;&#1088;&#1092;&#1077;&#1081;&#1089;</text></g><!--entity TasksService--><g id="elem_TasksService"><rect fill="#FFFFFF" height="36.4883" style="stroke:#181818;stroke-width:0.5;" width="200" x="53" y="146.73"/><text fill="#000000" font-family="sans-serif" font-size="14" lengthAdjust="spacing" textLength="180" x="63" y="170.2652">&#1057;&#1077;&#1088;&#1074;&#1080;&#1089; &#1087;&#1086; &#1074;&#1077;&#1076;&#1077;&#1085;&#1080;&#1102; &#1079;&#1072;&#1076;&#1072;&#1095;</text></g><!--entity TasksDB--><g id="elem_TasksDB"><rect fill="#FFFFFF" height="36.4883" style="stroke:#181818;stroke-width:0.5;" width="190" x="23" y="251.46"/><text fill="#000000" font-family="sans-serif" font-size="14" lengthAdjust="spacing" textLength="170" x="33" y="274.9952">&#1041;&#1072;&#1079;&#1072; &#1076;&#1072;&#1085;&#1085;&#1099;&#1093; &#1089; &#1079;&#1072;&#1076;&#1072;&#1095;&#1072;&#1084;&#1080;</text></g><!--entity ReservationsSection--><g id="elem_ReservationsSection"><rect fill="#FFFFFF" height="36.4883" style="stroke:#181818;stroke-width:0.5;" width="229" x="695.5" y="42"/><text fill="#000000" font-family="sans-serif" font-size="14" lengthAdjust="spacing" textLength="209" x="705.5" y="65.5352">&#1055;&#1086;&#1083;&#1100;&#1079;&#1086;&#1074;&#1072;&#1090;&#1077;&#1083;&#1100;&#1089;&#1082;&#1080;&#1081; &#1080;&#1085;&#1090;&#1077;&#1088;&#1092;&#1077;&#1081;&#1089;</text></g><!--entity ReservationsService--><g id="elem_ReservationsService"><rect fill="#FFFFFF" height="36.4883" style="stroke:#181818;stroke-width:0.5;" width="202" x="695" y="146.73"/><text fill="#000000" font-family="sans-serif" font-size="14" lengthAdjust="spacing" textLength="182" x="705" y="170.2652">&#1057;&#1077;&#1088;&#1074;&#1080;&#1089; &#1087;&#1086; &#1073;&#1088;&#1086;&#1085;&#1080;&#1088;&#1086;&#1074;&#1072;&#1085;&#1080;&#1102;</text></g><!--entity ReservationsDB--><g id="elem_ReservationsDB"><rect fill="#FFFFFF" height="36.4883" style="stroke:#181818;stroke-width:0.5;" width="185" x="740.5" y="251.46"/><text fill="#000000" font-family="sans-serif" font-size="14" lengthAdjust="spacing" textLength="165" x="750.5" y="274.9952">&#1041;&#1072;&#1079;&#1072; &#1076;&#1072;&#1085;&#1085;&#1099;&#1093; &#1089; &#1073;&#1088;&#1086;&#1085;&#1103;&#1084;&#1080;</text></g><!--entity Database--><g id="elem_Database"><rect fill="#FFFFFF" height="36.4883" style="stroke:#181818;stroke-width:0.5;" width="109" x="422.5" y="347.95"/><text fill="#000000" font-family="sans-serif" font-size="14" lengthAdjust="spacing" textLength="89" x="432.5" y="371.4852">&#1041;&#1072;&#1079;&#1072; &#1076;&#1072;&#1085;&#1085;&#1099;&#1093;</text></g><!--entity A--><g id="elem_A"><rect fill="#FFFFFF" height="36.4883" style="stroke:#181818;stroke-width:0.5;" width="174" x="390" y="251.46"/><text fill="#000000" font-family="sans-serif" font-size="14" lengthAdjust="spacing" textLength="154" x="400" y="274.9952">&#1057;&#1080;&#1089;&#1090;&#1077;&#1084;&#1072; &#1072;&#1074;&#1090;&#1086;&#1088;&#1080;&#1079;&#1072;&#1094;&#1080;&#1080;</text></g><!--entity AdminPanel--><g id="elem_AdminPanel"><rect fill="#FFFFFF" height="52.9766" style="stroke:#181818;stroke-width:0.5;" width="197" x="461.5" y="138.49"/><text fill="#000000" font-family="sans-serif" font-size="14" lengthAdjust="spacing" textLength="104" x="471.5" y="162.0252">&#1040;&#1076;&#1084;&#1080;&#1085;-&#1087;&#1072;&#1085;&#1077;&#1083;&#1100;</text><text fill="#000000" font-family="sans-serif" font-size="14" lengthAdjust="spacing" textLength="173" x="475.5" y="178.5134">&#1076;&#1083;&#1103; &#1091;&#1087;&#1088;&#1072;&#1074;&#1083;&#1077;&#1085;&#1080;&#1103; &#1087;&#1088;&#1072;&#1074;&#1072;&#1084;&#1080;</text></g><!--entity ScheduleSection--><g id="elem_ScheduleSection"><rect fill="#FFFFFF" height="36.4883" style="stroke:#181818;stroke-width:0.5;" width="154" x="309" y="42"/><text fill="#000000" font-family="sans-serif" font-size="14" lengthAdjust="spacing" textLength="134" x="319" y="65.5352">&#1056;&#1072;&#1079;&#1076;&#1077;&#1083; &#1088;&#1072;&#1089;&#1087;&#1080;&#1089;&#1072;&#1085;&#1080;&#1103;</text></g><!--link TasksSection to TasksService--><g id="link_TasksSection_TasksService"><path d="M140.54,78.67 C143.04,95.79 146.87,122.01 149.63,140.87 " fill="none" id="TasksSection-to-TasksService" style="stroke:#181818;stroke-width:2.0;stroke-dasharray:7.0,7.0;"/><polygon fill="#181818" points="150.44,145.46,153.0848,135.9729,149.7109,140.5134,145.1703,137.1395,150.44,145.46" style="stroke:#181818;stroke-width:2.0;"/></g><!--link TasksService to TasksDB--><g id="link_TasksService_TasksDB"><path d="M147.06,183.4 C141.23,200.52 132.3,226.75 125.87,245.6 " fill="none" id="TasksService-to-TasksDB" style="stroke:#181818;stroke-width:2.0;stroke-dasharray:7.0,7.0;"/><polygon fill="#181818" points="123.97,250.19,130.6566,242.9588,125.581,245.4567,123.0832,240.3811,123.97,250.19" style="stroke:#181818;stroke-width:2.0;"/></g><!--link ReservationsSection to ReservationsService--><g id="link_ReservationsSection_ReservationsService"><path d="M807.63,78.67 C805.29,95.79 801.72,122.01 799.15,140.87 " fill="none" id="ReservationsSection-to-ReservationsService" style="stroke:#181818;stroke-width:2.0;stroke-dasharray:7.0,7.0;"/><polygon fill="#181818" points="798.39,145.46,803.5618,137.0783,799.0611,140.5052,795.6342,136.0046,798.39,145.46" style="stroke:#181818;stroke-width:2.0;"/></g><!--link ReservationsService to ReservationsDB--><g id="link_ReservationsService_ReservationsDB"><path d="M802.28,183.4 C808.44,200.52 817.89,226.75 824.68,245.6 " fill="none" id="ReservationsService-to-ReservationsDB" style="stroke:#181818;stroke-width:2.0;stroke-dasharray:7.0,7.0;"/><polygon fill="#181818" points="826.69,250.19,827.4167,240.368,825.002,245.4836,819.8864,243.0688,826.69,250.19" style="stroke:#181818;stroke-width:2.0;"/></g><!--link ScheduleSection to TasksService--><g id="link_ScheduleSection_TasksService"><path d="M345.95,78.9 C304.89,97 241.17,125.1 198.3,144 " fill="none" id="ScheduleSection-to-TasksService" style="stroke:#181818;stroke-width:2.0;stroke-dasharray:7.0,7.0;"/><polygon fill="#181818" points="193.92,146.37,203.7688,146.4015,198.4955,144.3539,200.5431,139.0806,193.92,146.37" style="stroke:#181818;stroke-width:2.0;"/></g><!--link ScheduleSection to ReservationsService--><g id="link_ScheduleSection_ReservationsService"><path d="M456.48,78.9 C529.78,97.27 644.17,125.93 719.6,144.83 " fill="none" id="ScheduleSection-to-ReservationsService" style="stroke:#181818;stroke-width:2.0;stroke-dasharray:7.0,7.0;"/><polygon fill="#181818" points="724.41,146.29,716.6657,140.2052,719.5627,145.0639,714.7039,147.9609,724.41,146.29" style="stroke:#181818;stroke-width:2.0;"/></g><!--link A to Database--><g id="link_A_Database"><path d="M477,288.04 C477,303.13 477,325.13 477,341.78 " fill="none" id="A-to-Database" style="stroke:#181818;stroke-width:1.0;stroke-dasharray:7.0,7.0;"/><polygon fill="#181818" points="477,346.66,481,337.66,477,341.66,473,337.66,477,346.66" style="stroke:#181818;stroke-width:1.0;"/></g><!--link AdminPanel to Database--><g id="link_AdminPanel_Database"><path d="M573.5,191.76 C587.62,222.63 604.8,274.82 582,311.95 C571.82,328.52 554.7,340.13 537.21,348.18 " fill="none" id="AdminPanel-to-Database" style="stroke:#181818;stroke-width:1.0;stroke-dasharray:7.0,7.0;"/><polygon fill="#181818" points="532.78,350.56,542.6288,350.6028,537.3578,348.5492,539.4114,343.2782,532.78,350.56" style="stroke:#181818;stroke-width:1.0;"/></g><!--link ScheduleSection to Database--><g id="link_ScheduleSection_Database"><path d="M378.74,78.69 C361.98,121.96 325.46,236.17 372,311.95 C382.18,328.52 399.3,340.13 416.79,348.18 " fill="none" id="ScheduleSection-to-Database" style="stroke:#181818;stroke-width:1.0;stroke-dasharray:7.0,7.0;"/><polygon fill="#181818" points="421.22,350.56,414.5886,343.2782,416.6422,348.5492,411.3712,350.6028,421.22,350.56" style="stroke:#181818;stroke-width:1.0;"/></g><!--link TasksService to Database--><g id="link_TasksService_Database"><path d="M167.27,183.43 C192.97,213.77 250.03,276.38 311,311.95 C343.62,330.98 383.88,344.11 416.58,352.57 " fill="none" id="TasksService-to-Database" style="stroke:#181818;stroke-width:1.0;stroke-dasharray:7.0,7.0;"/><polygon fill="#181818" points="421.18,353.99,413.4357,347.9052,416.3327,352.7639,411.4739,355.6609,421.18,353.99" style="stroke:#181818;stroke-width:1.0;"/></g><!--link ReservationsService to Database--><g id="link_ReservationsService_Database"><path d="M777.88,183.56 C746.49,213.27 679.01,273.87 613,311.95 C589.31,325.62 561.45,337.22 537.13,346.07 " fill="none" id="ReservationsService-to-Database" style="stroke:#181818;stroke-width:1.0;stroke-dasharray:7.0,7.0;"/><polygon fill="#181818" points="532.68,348.03,542.502,348.7567,537.3864,346.342,539.8012,341.2264,532.68,348.03" style="stroke:#181818;stroke-width:1.0;"/></g><!--link AdminPanel to A--><g id="link_AdminPanel_A"><path d="M539.06,191.9 C525.36,208.85 507.67,230.75 494.68,246.82 " fill="none" id="AdminPanel-to-A" style="stroke:#181818;stroke-width:1.0;stroke-dasharray:7.0,7.0;"/><polygon fill="#181818" points="491.15,250.19,499.9199,245.7079,494.2943,246.3024,493.6998,240.6769,491.15,250.19" style="stroke:#181818;stroke-width:1.0;"/></g><!--link ScheduleSection to A--><g id="link_ScheduleSection_A"><path d="M393.76,78.93 C410.21,116.44 448.6,203.95 466.92,245.72 " fill="none" id="ScheduleSection-to-A" style="stroke:#181818;stroke-width:1.0;stroke-dasharray:7.0,7.0;"/><polygon fill="#181818" points="469.26,250.06,469.3028,240.2112,467.2492,245.4822,461.9782,243.4286,469.26,250.06" style="stroke:#181818;stroke-width:1.0;"/></g><!--link TasksService to A--><g id="link_TasksService_A"><path d="M208.7,183.64 C266.28,201.89 355.93,230.32 415.54,249.22 " fill="none" id="TasksService-to-A" style="stroke:#181818;stroke-width:1.0;stroke-dasharray:7.0,7.0;"/><polygon fill="#181818" points="420.22,251.02,412.8516,244.4849,415.4542,249.5075,410.4317,252.1101,420.22,251.02" style="stroke:#181818;stroke-width:1.0;"/></g><!--link ReservationsService to A--><g id="link_ReservationsService_A"><path d="M741.16,183.64 C684.47,201.89 596.2,230.32 537.51,249.22 " fill="none" id="ReservationsService-to-A" style="stroke:#181818;stroke-width:1.0;stroke-dasharray:7.0,7.0;"/><polygon fill="#181818" points="532.92,251.02,542.7122,252.075,537.6803,249.4904,540.2649,244.4585,532.92,251.02" style="stroke:#181818;stroke-width:1.0;"/></g><!--SRC=[hPJDRjD04CVlVefHBm69cWg9MwdaKeaB1zIK4t3OEDF6YhCEtasXGfKIlde0DV04fMyGgbIaf4bVOVUDcDryhHCd1OcJr_Fnc__Ch5q0WES2ov1YA1a_Y15A6BA6GAYpiCeE4Ce92bwGyBeHIOJzw2q8UKHnAP8bnHfoAU1E9Bq2r28XK03Mwl88aAMGS90L19dK8SPzUGzOAJb4QyFOfjxrlKtBs_9c4jvv90ksIS2JD6dmykCaJb9uKo41rlCquhXNYS8gHo5WmtzehRkZq9HZ2XlUiRTvVmnso6lgk-geNwe3gak7WHheB_hJ6Z01Eqoo4XEO3JzNFTtIxzMbkZP97NL1BqFTL3r3qP_fsRFfGJRl6_6loJbOLpUsqANgwwylkQdRrstG7zGDKOYd-kGRK9asJ4qTapl2bciHVyOunbd-3zj6rs319EaMrI6fjXQnR78nh62v4MEH4gE4h-piWWxTcH9gpan8drZG7XDLCLwBopXJGzCMHG-DQakZTvBnctg_0ZC0OzHD_P5SLxermqr4pJFFJJZHI1qDH0spqavpfHKnFOn2N63bBHiCTyfmHcr9EzkUfRWImNyX9xVjqODN_jPYKTUm99p8noity9FQ7jeccwDnEflSHK5mPjJynpsurBzVHxxEqnpYFovb3DRjwKfSt6GpEQ8N9xvCHuvzTV9eQtCVqYqNujReF7LU03wvfd-XsOUVjI_0NMVs6hgUtCRTWFc2GMwbOB54i9GT_040]--></g></svg>