<?xml version="1.0" encoding="us-ascii" standalone="no"?><svg xmlns="http://www.w3.org/2000/svg" xmlns:xlink="http://www.w3.org/1999/xlink" contentStyleType="text/css" height="1088px" preserveAspectRatio="none" style="width:2421px;height:1088px;background:#FFFFFF;" version="1.1" viewBox="0 0 2421 1088" width="2421px" zoomAndPan="magnify"><defs/><g><!--cluster ??????????--><g id="cluster_&#1050;&#1086;&#1084;&#1072;&#1085;&#1076;&#1072;&#1055;&#1059;&#1060;"><rect fill="none" height="127" rx="2.5" ry="2.5" style="stroke:#181818;stroke-width:1.0;" width="624.5" x="1097.86" y="851"/><path d="M1204.86,851 L1204.86,860.4883 L1194.86,870.4883 L1097.86,870.4883 " fill="none" style="stroke:#181818;stroke-width:1.0;"/><text fill="#000000" font-family="sans-serif" font-size="14" font-weight="bold" lengthAdjust="spacing" textLength="97" x="1100.86" y="865.5352">&#1050;&#1086;&#1084;&#1072;&#1085;&#1076;&#1072;&#1055;&#1059;&#1060;</text></g><!--cluster ????????????--><g id="cluster_&#1058;&#1077;&#1089;&#1090;&#1080;&#1088;&#1086;&#1074;&#1072;&#1085;&#1080;&#1077;"><rect fill="none" height="238" rx="2.5" ry="2.5" style="stroke:#181818;stroke-width:1.0;" width="116" x="47" y="380"/><path d="M158,380 L158,389.4883 L148,399.4883 L47,399.4883 " fill="none" style="stroke:#181818;stroke-width:1.0;"/><text fill="#000000" font-family="sans-serif" font-size="14" font-weight="bold" lengthAdjust="spacing" textLength="101" x="50" y="394.5352">&#1058;&#1077;&#1089;&#1090;&#1080;&#1088;&#1086;&#1074;&#1072;&#1085;&#1080;&#1077;</text></g><!--cluster ????????--><g id="cluster_&#1058;&#1077;&#1093;&#1054;&#1090;&#1076;&#1077;&#1083;"><rect fill="none" height="349" rx="2.5" ry="2.5" style="stroke:#181818;stroke-width:1.0;" width="196" x="7" y="7"/><path d="M89,7 L89,16.4883 L79,26.4883 L7,26.4883 " fill="none" style="stroke:#181818;stroke-width:1.0;"/><text fill="#000000" font-family="sans-serif" font-size="14" font-weight="bold" lengthAdjust="spacing" textLength="72" x="10" y="21.5352">&#1058;&#1077;&#1093;&#1054;&#1090;&#1076;&#1077;&#1083;</text></g><!--cluster ????????????--><g id="cluster_&#1056;&#1072;&#1079;&#1088;&#1072;&#1073;&#1086;&#1090;&#1095;&#1080;&#1082;&#1080;"><rect fill="none" height="127" rx="2.5" ry="2.5" style="stroke:#181818;stroke-width:1.0;" width="148" x="1095.86" y="613"/><path d="M1205.86,613 L1205.86,622.4883 L1195.86,632.4883 L1095.86,632.4883 " fill="none" style="stroke:#181818;stroke-width:1.0;"/><text fill="#000000" font-family="sans-serif" font-size="14" font-weight="bold" lengthAdjust="spacing" textLength="100" x="1098.86" y="627.5352">&#1056;&#1072;&#1079;&#1088;&#1072;&#1073;&#1086;&#1090;&#1095;&#1080;&#1082;&#1080;</text></g><!--cluster ???--><g id="cluster_&#1055;&#1059;&#1060;"><rect fill="none" height="560" rx="2.5" ry="2.5" style="stroke:#181818;stroke-width:1.0;" width="2179.77" x="236" y="29"/><path d="M278,29 L278,38.4883 L268,48.4883 L236,48.4883 " fill="none" style="stroke:#181818;stroke-width:1.0;"/><text fill="#000000" font-family="sans-serif" font-size="14" font-weight="bold" lengthAdjust="spacing" textLength="32" x="239" y="43.5352">&#1055;&#1059;&#1060;</text></g><!--cluster ????????????--><g id="cluster_&#1041;&#1088;&#1086;&#1085;&#1080;&#1088;&#1086;&#1074;&#1072;&#1085;&#1080;&#1103;"><rect fill="none" height="246" rx="2.5" ry="2.5" style="stroke:#181818;stroke-width:1.0;" width="490.57" x="1406.58" y="281"/><path d="M1521.58,281 L1521.58,290.4883 L1511.58,300.4883 L1406.58,300.4883 " fill="none" style="stroke:#181818;stroke-width:1.0;"/><text fill="#000000" font-family="sans-serif" font-size="14" font-weight="bold" lengthAdjust="spacing" textLength="105" x="1409.58" y="295.5352">&#1041;&#1088;&#1086;&#1085;&#1080;&#1088;&#1086;&#1074;&#1072;&#1085;&#1080;&#1103;</text></g><!--cluster ????????--><g id="cluster_&#1040;&#1074;&#1090;&#1086;&#1087;&#1072;&#1088;&#1082;"><rect fill="none" height="378" rx="2.5" ry="2.5" style="stroke:#181818;stroke-width:1.0;" width="358.78" x="621.36" y="187"/><path d="M699.36,187 L699.36,196.4883 L689.36,206.4883 L621.36,206.4883 " fill="none" style="stroke:#181818;stroke-width:1.0;"/><text fill="#000000" font-family="sans-serif" font-size="14" font-weight="bold" lengthAdjust="spacing" textLength="68" x="624.36" y="201.5352">&#1040;&#1074;&#1090;&#1086;&#1087;&#1072;&#1088;&#1082;</text></g><!--entity Support--><g id="elem_Support"><ellipse cx="1651.86" cy="894.26" fill="#F1F1F1" rx="8" ry="8" style="stroke:#181818;stroke-width:0.5;"/><path d="M1651.86,902.26 L1651.86,929.26 M1638.86,910.26 L1664.86,910.26 M1651.86,929.26 L1638.86,944.26 M1651.86,929.26 L1664.86,944.26 " fill="none" style="stroke:#181818;stroke-width:0.5;"/><text fill="#000000" font-family="sans-serif" font-size="14" lengthAdjust="spacing" textLength="109" x="1597.36" y="959.2952">&#1058;&#1077;&#1093; &#1087;&#1086;&#1076;&#1076;&#1077;&#1088;&#1078;&#1082;&#1072;</text></g><!--entity Admin--><g id="elem_Admin"><ellipse cx="1169.86" cy="894.26" fill="#F1F1F1" rx="8" ry="8" style="stroke:#181818;stroke-width:0.5;"/><path d="M1169.86,902.26 L1169.86,929.26 M1156.86,910.26 L1182.86,910.26 M1169.86,929.26 L1156.86,944.26 M1169.86,929.26 L1182.86,944.26 " fill="none" style="stroke:#181818;stroke-width:0.5;"/><text fill="#000000" font-family="sans-serif" font-size="14" lengthAdjust="spacing" textLength="112" x="1113.86" y="959.2952">&#1040;&#1076;&#1084;&#1080;&#1085;&#1080;&#1089;&#1090;&#1088;&#1072;&#1090;&#1086;&#1088;</text></g><!--entity ????????--><g id="elem_&#1042;&#1086;&#1076;&#1080;&#1090;&#1077;&#1083;&#1100;"><ellipse cx="105" cy="423.26" fill="#F1F1F1" rx="8" ry="8" style="stroke:#181818;stroke-width:0.5;"/><path d="M105,431.26 L105,458.26 M92,439.26 L118,439.26 M105,458.26 L92,473.26 M105,458.26 L118,473.26 " fill="none" style="stroke:#181818;stroke-width:0.5;"/><text fill="#000000" font-family="sans-serif" font-size="14" lengthAdjust="spacing" textLength="65" x="72.5" y="488.2952">&#1042;&#1086;&#1076;&#1080;&#1090;&#1077;&#1083;&#1100;</text></g><!--entity Auto--><g id="elem_Auto"><ellipse cx="105" cy="534.26" fill="#F1F1F1" rx="8" ry="8" style="stroke:#181818;stroke-width:0.5;"/><path d="M105,542.26 L105,569.26 M92,550.26 L118,550.26 M105,569.26 L92,584.26 M105,569.26 L118,584.26 " fill="none" style="stroke:#181818;stroke-width:0.5;"/><text fill="#000000" font-family="sans-serif" font-size="14" lengthAdjust="spacing" textLength="84" x="63" y="599.2952">&#1040;&#1074;&#1090;&#1086;&#1084;&#1086;&#1073;&#1080;&#1083;&#1100;</text></g><!--entity FleetManager--><g id="elem_FleetManager"><ellipse cx="105" cy="161.26" fill="#F1F1F1" rx="8" ry="8" style="stroke:#181818;stroke-width:0.5;"/><path d="M105,169.26 L105,196.26 M92,177.26 L118,177.26 M105,196.26 L92,211.26 M105,196.26 L118,211.26 " fill="none" style="stroke:#181818;stroke-width:0.5;"/><text fill="#000000" font-family="sans-serif" font-size="14" lengthAdjust="spacing" textLength="164" x="23" y="226.2952">&#1054;&#1090;&#1074;&#1077;&#1090;&#1089;&#1090;&#1074;&#1077;&#1085;&#1085;&#1099;&#1081; &#1079;&#1072; &#1092;&#1083;&#1086;&#1090;</text></g><!--entity Engineer--><g id="elem_Engineer"><ellipse cx="105" cy="50.26" fill="#F1F1F1" rx="8" ry="8" style="stroke:#181818;stroke-width:0.5;"/><path d="M105,58.26 L105,85.26 M92,66.26 L118,66.26 M105,85.26 L92,100.26 M105,85.26 L118,100.26 " fill="none" style="stroke:#181818;stroke-width:0.5;"/><text fill="#000000" font-family="sans-serif" font-size="14" lengthAdjust="spacing" textLength="124" x="43" y="115.2952">&#1043;&#1083;&#1072;&#1074;&#1085;&#1099;&#1081; &#1080;&#1085;&#1078;&#1077;&#1085;&#1077;&#1088;</text></g><!--entity Technician--><g id="elem_Technician"><ellipse cx="105" cy="272.26" fill="#F1F1F1" rx="8" ry="8" style="stroke:#181818;stroke-width:0.5;"/><path d="M105,280.26 L105,307.26 M92,288.26 L118,288.26 M105,307.26 L92,322.26 M105,307.26 L118,322.26 " fill="none" style="stroke:#181818;stroke-width:0.5;"/><text fill="#000000" font-family="sans-serif" font-size="14" lengthAdjust="spacing" textLength="52" x="79" y="337.2952">&#1058;&#1077;&#1093;&#1085;&#1080;&#1082;</text></g><!--entity ML-???????????--><g id="elem_ML-&#1088;&#1072;&#1079;&#1088;&#1072;&#1073;&#1086;&#1090;&#1095;&#1080;&#1082;"><ellipse cx="1169.86" cy="656.26" fill="#F1F1F1" rx="8" ry="8" style="stroke:#181818;stroke-width:0.5;"/><path d="M1169.86,664.26 L1169.86,691.26 M1156.86,672.26 L1182.86,672.26 M1169.86,691.26 L1156.86,706.26 M1169.86,691.26 L1182.86,706.26 " fill="none" style="stroke:#181818;stroke-width:0.5;"/><text fill="#000000" font-family="sans-serif" font-size="14" lengthAdjust="spacing" textLength="116" x="1111.86" y="721.2952">ML-&#1088;&#1072;&#1079;&#1088;&#1072;&#1073;&#1086;&#1090;&#1095;&#1080;&#1082;</text></g><g id="elem_RM"><ellipse cx="2306.7653" cy="551.9991" fill="#F1F1F1" rx="92.9953" ry="20.9991" style="stroke:#181818;stroke-width:0.5;"/><text fill="#000000" font-family="sans-serif" font-size="14" lengthAdjust="spacing" textLength="148" x="2232.7653" y="555.2901">&#1059;&#1087;&#1088;&#1072;&#1074;&#1083;&#1077;&#1085;&#1080;&#1077; &#1087;&#1088;&#1072;&#1074;&#1072;&#1084;&#1080;</text></g><g id="elem_R"><ellipse cx="2071.9648" cy="552.003" fill="#F1F1F1" rx="80.8148" ry="18.563" style="stroke:#181818;stroke-width:0.5;"/><text fill="#000000" font-family="sans-serif" font-size="14" lengthAdjust="spacing" textLength="120" x="2011.9648" y="555.294">&#1053;&#1072;&#1079;&#1085;&#1072;&#1095;&#1077;&#1085;&#1080;&#1077; &#1087;&#1088;&#1072;&#1074;</text></g><g id="elem_Auth"><ellipse cx="2071.959" cy="292.0038" fill="#F1F1F1" rx="69.069" ry="16.2138" style="stroke:#181818;stroke-width:0.5;"/><text fill="#000000" font-family="sans-serif" font-size="14" lengthAdjust="spacing" textLength="91" x="2024.145" y="295.873">&#1040;&#1074;&#1090;&#1086;&#1088;&#1080;&#1079;&#1072;&#1094;&#1080;&#1103;</text></g><g id="elem_ServiceManagement"><ellipse cx="413.1821" cy="98.9964" fill="#F1F1F1" rx="161.1821" ry="34.6364" style="stroke:#181818;stroke-width:0.5;"/><text fill="#000000" font-family="sans-serif" font-size="14" lengthAdjust="spacing" textLength="209" x="308.6821" y="94.0433">&#1053;&#1072;&#1079;&#1085;&#1072;&#1095;&#1077;&#1085;&#1080;&#1077; &#1080; &#1089;&#1086;&#1079;&#1076;&#1072;&#1085;&#1080;&#1077; &#1079;&#1072;&#1076;&#1072;&#1095;</text><text fill="#000000" font-family="sans-serif" font-size="14" lengthAdjust="spacing" textLength="254" x="288.1821" y="110.5316">&#1085;&#1072; &#1088;&#1077;&#1084;&#1086;&#1085;&#1090; &#1080; &#1087;&#1086;&#1076;&#1076;&#1077;&#1088;&#1078;&#1082;&#1091; &#1072;&#1074;&#1090;&#1086;&#1084;&#1086;&#1073;&#1080;&#1083;&#1103;</text></g><g id="elem_CarManagement"><ellipse cx="800.7475" cy="135.9975" fill="#F1F1F1" rx="163.3875" ry="35.0775" style="stroke:#181818;stroke-width:0.5;"/><text fill="#000000" font-family="sans-serif" font-size="14" lengthAdjust="spacing" textLength="298" x="651.7475" y="139.2885">&#1057;&#1086;&#1079;&#1076;&#1072;&#1085;&#1080;&#1077; &#1088;&#1072;&#1089;&#1087;&#1080;&#1089;&#1072;&#1085;&#1080;&#1103; &#1084;&#1072;&#1096;&#1080;&#1085; &#1080; &#1074;&#1086;&#1076;&#1080;&#1090;&#1077;&#1083;&#1077;&#1081;</text></g><g id="elem_&#1047;&#1072;&#1087;&#1080;&#1089;&#1100; &#1074; &#1041;&#1044; &#1076;&#1072;&#1085;&#1085;&#1099;&#1093; &#1086; &#1090;&#1077;&#1089;&#1090;&#1080;&#1088;&#1086;&#1074;&#1072;&#1085;&#1080;&#1080;"><ellipse cx="1169.859" cy="514.0038" fill="#F1F1F1" rx="142.719" ry="30.9438" style="stroke:#181818;stroke-width:0.5;"/><text fill="#000000" font-family="sans-serif" font-size="14" lengthAdjust="spacing" textLength="255" x="1042.359" y="517.2948">&#1047;&#1072;&#1087;&#1080;&#1089;&#1100; &#1074; &#1041;&#1044; &#1076;&#1072;&#1085;&#1085;&#1099;&#1093; &#1086; &#1090;&#1077;&#1089;&#1090;&#1080;&#1088;&#1086;&#1074;&#1072;&#1085;&#1080;&#1080;</text></g><g id="elem_Reservation"><ellipse cx="1651.8561" cy="462.9972" fill="#F1F1F1" rx="229.2861" ry="48.2572" style="stroke:#181818;stroke-width:0.5;"/><text fill="#000000" font-family="sans-serif" font-size="14" lengthAdjust="spacing" textLength="433" x="1435.3561" y="466.2882">&#1041;&#1088;&#1086;&#1085;&#1080;&#1088;&#1086;&#1074;&#1072;&#1085;&#1080;&#1077; &#1084;&#1072;&#1096;&#1080;&#1085; &#1076;&#1083;&#1103; &#1087;&#1088;&#1086;&#1074;&#1077;&#1088;&#1082;&#1080; &#1085;&#1072;&#1087;&#1080;&#1089;&#1072;&#1085;&#1085;&#1099;&#1093; &#1072;&#1083;&#1075;&#1086;&#1088;&#1080;&#1090;&#1084;&#1086;&#1074;</text></g><g id="elem_Calendaring"><ellipse cx="1651.8558" cy="347.9992" fill="#F1F1F1" rx="146.5458" ry="31.7092" style="stroke:#181818;stroke-width:0.5;"/><text fill="#000000" font-family="sans-serif" font-size="14" lengthAdjust="spacing" textLength="263" x="1520.3558" y="351.2902">&#1054;&#1090;&#1084;&#1077;&#1090;&#1082;&#1072; &#1079;&#1072;&#1085;&#1103;&#1090;&#1099;&#1093; &#1084;&#1072;&#1096;&#1080;&#1085; &#1080; &#1074;&#1086;&#1076;&#1080;&#1090;&#1077;&#1083;&#1077;&#1081;</text></g><g id="elem_StartRiding"><ellipse cx="800.7547" cy="425.0009" fill="#F1F1F1" rx="83.8047" ry="19.1609" style="stroke:#181818;stroke-width:0.5;"/><text fill="#000000" font-family="sans-serif" font-size="14" lengthAdjust="spacing" textLength="127" x="737.2547" y="428.292">&#1054;&#1090;&#1084;&#1077;&#1090;&#1080;&#1090;&#1100; &#1087;&#1086;&#1077;&#1079;&#1076;&#1082;&#1091;</text></g><g id="elem_ServiceWork"><ellipse cx="800.7496" cy="336.9959" fill="#F1F1F1" rx="158.6296" ry="34.1259" style="stroke:#181818;stroke-width:0.5;"/><text fill="#000000" font-family="sans-serif" font-size="14" lengthAdjust="spacing" textLength="252" x="674.7496" y="332.0428">&#1048;&#1079;&#1084;&#1077;&#1085;&#1077;&#1085;&#1080;&#1077; &#1089;&#1090;&#1072;&#1090;&#1091;&#1089;&#1072; &#1090;&#1077;&#1082;&#1091;&#1097;&#1077;&#1081; &#1079;&#1072;&#1076;&#1072;&#1095;&#1080;,</text><text fill="#000000" font-family="sans-serif" font-size="14" lengthAdjust="spacing" textLength="223" x="691.2496" y="348.5311">&#1085;&#1072;&#1087;&#1080;&#1089;&#1072;&#1085;&#1080;&#1077; &#1082;&#1086;&#1084;&#1084;&#1077;&#1085;&#1090;&#1072;&#1088;&#1080;&#1077;&#1074; &#1074; &#1085;&#1077;&#1081;</text></g><g id="elem_Tasks"><ellipse cx="800.7507" cy="245.0001" fill="#F1F1F1" rx="102.9007" ry="22.9801" style="stroke:#181818;stroke-width:0.5;"/><text fill="#000000" font-family="sans-serif" font-size="14" lengthAdjust="spacing" textLength="170" x="715.7507" y="248.2912">&#1042;&#1077;&#1076;&#1077;&#1085;&#1080;&#1077; &#1082;&#1072;&#1090;&#1086;&#1083;&#1086;&#1075;&#1072; &#1079;&#1072;&#1076;&#1072;&#1095;</text></g><g id="elem_SendingData"><ellipse cx="800.7475" cy="513.9975" fill="#F1F1F1" rx="163.3875" ry="35.0775" style="stroke:#181818;stroke-width:0.5;"/><text fill="#000000" font-family="sans-serif" font-size="14" lengthAdjust="spacing" textLength="298" x="651.7475" y="517.2885">&#1054;&#1090;&#1087;&#1088;&#1072;&#1074;&#1082;&#1072; &#1076;&#1072;&#1085;&#1085;&#1099;&#1093; &#1090;&#1077;&#1089;&#1090;&#1080;&#1088;&#1086;&#1074;&#1072;&#1085;&#1080;&#1103; &#1085;&#1072; &#1089;&#1077;&#1088;&#1074;&#1077;&#1088;</text></g><!--entity AnalyticsService--><g id="elem_AnalyticsService"><ellipse cx="1169.86" cy="767.26" fill="#F1F1F1" rx="8" ry="8" style="stroke:#181818;stroke-width:0.5;"/><path d="M1169.86,775.26 L1169.86,802.26 M1156.86,783.26 L1182.86,783.26 M1169.86,802.26 L1156.86,817.26 M1169.86,802.26 L1182.86,817.26 " fill="none" style="stroke:#181818;stroke-width:0.5;"/><text fill="#000000" font-family="sans-serif" font-size="14" lengthAdjust="spacing" textLength="129" x="1105.36" y="832.2952">&#1057;&#1077;&#1088;&#1074;&#1080;&#1089; &#1072;&#1085;&#1072;&#1083;&#1080;&#1090;&#1080;&#1082;&#1080;</text></g><!--reverse link Admin to Support--><g id="link_Admin_Support"><path d="M1246.83,924 C1344.52,924 1511.73,924 1597.18,924 " fill="none" id="Admin-backto-Support" style="stroke:#181818;stroke-width:1.0;"/><polygon fill="none" points="1246.92,931,1226.92,924,1246.92,917,1246.92,931" style="stroke:#181818;stroke-width:1.0;"/></g><!--link R to Auth--><g id="link_R_Auth"><path d="M2071.96,533.3 C2071.96,486.53 2071.96,364.63 2071.96,314.27 " fill="none" id="R-to-Auth" style="stroke:#181818;stroke-width:1.0;stroke-dasharray:7.0,7.0;"/><polygon fill="#181818" points="2071.96,309.49,2067.96,318.49,2071.96,314.49,2075.96,318.49,2071.96,309.49" style="stroke:#181818;stroke-width:1.0;"/><text fill="#000000" font-family="sans-serif" font-size="13" lengthAdjust="spacing" textLength="46" x="2037.46" y="425.8884">include</text></g><!--link ServiceManagement to Auth--><g id="link_ServiceManagement_Auth"><path d="M563.37,86 C679.35,78.04 844.19,71.38 988.14,83 C1399.71,116.22 1505.51,128.19 1905.15,232 C1949.45,243.51 1998.56,262.04 2031.75,275.46 " fill="none" id="ServiceManagement-to-Auth" style="stroke:#181818;stroke-width:1.0;stroke-dasharray:7.0,7.0;"/><polygon fill="#181818" points="2035.94,277.57,2029.0956,270.4881,2031.3046,275.6958,2026.0968,277.9048,2035.94,277.57" style="stroke:#181818;stroke-width:1.0;"/><text fill="#000000" font-family="sans-serif" font-size="13" lengthAdjust="spacing" textLength="46" x="1146.86" y="83.5684">include</text></g><!--link CarManagement to Auth--><g id="link_CarManagement_Auth"><path d="M943.35,153.4 C1216.23,186.94 1805.54,259.38 2004.1,283.78 " fill="none" id="CarManagement-to-Auth" style="stroke:#181818;stroke-width:1.0;stroke-dasharray:7.0,7.0;"/><polygon fill="#181818" points="2008.86,284.49,2000.4185,279.4165,2003.8977,283.8768,1999.4374,287.3561,2008.86,284.49" style="stroke:#181818;stroke-width:1.0;"/><text fill="#000000" font-family="sans-serif" font-size="13" lengthAdjust="spacing" textLength="46" x="1343.58" y="199.5684">include</text></g><!--link Admin to RM--><g id="link_Admin_RM"><path d="M1226.27,945.14 C1352.76,989.87 1669.97,1081.99 1905.15,980 C2102.96,894.21 2247.73,657.31 2291.79,578.14 " fill="none" id="Admin-to-RM" style="stroke:#181818;stroke-width:1.0;"/><polygon fill="#181818" points="2294.54,574.16,2286.6874,580.1045,2292.1227,578.5368,2293.6904,583.9721,2294.54,574.16" style="stroke:#181818;stroke-width:1.0;"/></g><!--link Support to R--><g id="link_Support_R"><path d="M1696.03,885.59 C1783.21,808.03 1977.79,634.9 2046.42,573.83 " fill="none" id="Support-to-R" style="stroke:#181818;stroke-width:1.0;"/><polygon fill="#181818" points="2049.76,570.97,2040.3766,573.9619,2046.0237,574.2927,2045.6929,579.9399,2049.76,570.97" style="stroke:#181818;stroke-width:1.0;"/></g><!--reverse link R to RM--><g id="link_R_RM"><path d="M2174.06,552 C2187.17,552 2200.55,552 2213.5,552 " fill="none" id="R-backto-RM" style="stroke:#181818;stroke-width:1.0;"/><polygon fill="none" points="2174.08,559,2154.08,552,2174.08,545,2174.08,559" style="stroke:#181818;stroke-width:1.0;"/></g><!--link ML-??????????? to Reservation--><g id="link_ML-&#1088;&#1072;&#1079;&#1088;&#1072;&#1073;&#1086;&#1090;&#1095;&#1080;&#1082;_Reservation"><path d="M1228.28,659.32 C1307.86,622.35 1452.87,554.98 1550.55,509.6 " fill="none" id="ML-&#1088;&#1072;&#1079;&#1088;&#1072;&#1073;&#1086;&#1090;&#1095;&#1080;&#1082;-to-Reservation" style="stroke:#181818;stroke-width:1.0;"/><polygon fill="#181818" points="1554.74,507.19,1544.8928,507.3729,1550.2094,509.3052,1548.2772,514.6218,1554.74,507.19" style="stroke:#181818;stroke-width:1.0;"/></g><!--link Reservation to Calendaring--><g id="link_Reservation_Calendaring"><path d="M1651.86,414.48 C1651.86,405.02 1651.86,395.56 1651.86,386.09 " fill="none" id="Reservation-to-Calendaring" style="stroke:#181818;stroke-width:1.0;"/><polygon fill="#181818" points="1651.86,381.2,1647.86,390.2,1651.86,386.2,1655.86,390.2,1651.86,381.2" style="stroke:#181818;stroke-width:1.0;"/></g><!--link Reservation to Auth--><g id="link_Reservation_Auth"><path d="M1814.52,428.64 C1845.2,419.92 1876.61,409.41 1905.15,397 C1958.76,373.69 2014.98,334.46 2046.24,311.12 " fill="none" id="Reservation-to-Auth" style="stroke:#181818;stroke-width:1.0;stroke-dasharray:7.0,7.0;"/><polygon fill="#181818" points="2049.67,307.8,2040.07,310,2045.67,310.8,2044.87,316.4,2049.67,307.8" style="stroke:#181818;stroke-width:1.0;"/><text fill="#000000" font-family="sans-serif" font-size="13" lengthAdjust="spacing" textLength="46" x="1914.15" y="367.5684">include</text></g><!--link Engineer to ServiceManagement--><g id="link_Engineer_ServiceManagement"><path d="M167.22,83.8 C192.03,85.34 221.95,87.19 252.22,89.07 " fill="none" id="Engineer-to-ServiceManagement" style="stroke:#181818;stroke-width:1.0;"/><polygon fill="#181818" points="256.88,89.42,248.1365,84.8867,251.889,89.1197,247.656,92.8722,256.88,89.42" style="stroke:#181818;stroke-width:1.0;"/></g><!--link ServiceManagement to Tasks--><g id="link_ServiceManagement_Tasks"><path d="M458.68,132.64 C497.44,160.15 556.23,197.71 613.36,218 C639.54,227.29 668.87,233.39 696.38,237.39 " fill="none" id="ServiceManagement-to-Tasks" style="stroke:#181818;stroke-width:1.0;"/><polygon fill="#181818" points="701.22,238.22,692.8698,232.9975,696.2694,237.5189,691.748,240.9185,701.22,238.22" style="stroke:#181818;stroke-width:1.0;"/></g><!--link Technician to ServiceWork--><g id="link_Technician_ServiceWork"><path d="M131.1,303.27 C211.81,307.34 469.31,320.33 640.19,328.95 " fill="none" id="Technician-to-ServiceWork" style="stroke:#181818;stroke-width:1.0;"/><polygon fill="#181818" points="644.97,329.24,636.1873,324.783,639.9766,328.9832,635.7764,332.7725,644.97,329.24" style="stroke:#181818;stroke-width:1.0;"/></g><!--link ServiceWork to Tasks--><g id="link_ServiceWork_Tasks"><path d="M800.75,302.5 C800.75,293.08 800.75,283.65 800.75,274.23 " fill="none" id="ServiceWork-to-Tasks" style="stroke:#181818;stroke-width:1.0;"/><polygon fill="#181818" points="800.75,269.36,796.75,278.36,800.75,274.36,804.75,278.36,800.75,269.36" style="stroke:#181818;stroke-width:1.0;"/></g><!--link Tasks to CarManagement--><g id="link_Tasks_CarManagement"><path d="M800.75,221.58 C800.75,206.82 800.75,192.07 800.75,177.31 " fill="none" id="Tasks-to-CarManagement" style="stroke:#181818;stroke-width:1.0;"/><polygon fill="#181818" points="800.75,172.44,796.75,181.44,800.75,177.44,804.75,181.44,800.75,172.44" style="stroke:#181818;stroke-width:1.0;"/></g><!--link FleetManager to CarManagement--><g id="link_FleetManager_CarManagement"><path d="M187.28,184.56 C298.27,175.76 499.59,159.8 641.04,148.58 " fill="none" id="FleetManager-to-CarManagement" style="stroke:#181818;stroke-width:1.0;"/><polygon fill="#181818" points="645.89,148.12,636.6083,144.8261,640.9049,148.5057,637.2253,152.8023,645.89,148.12" style="stroke:#181818;stroke-width:1.0;"/></g><!--link ???????? to StartRiding--><g id="link_&#1042;&#1086;&#1076;&#1080;&#1090;&#1077;&#1083;&#1100;_StartRiding"><path d="M137.61,451.72 C238.63,447.65 556.11,434.83 711.85,428.55 " fill="none" id="&#1042;&#1086;&#1076;&#1080;&#1090;&#1077;&#1083;&#1100;-to-StartRiding" style="stroke:#181818;stroke-width:1.0;"/><polygon fill="#181818" points="716.78,428.31,707.6273,424.6729,711.784,428.5098,707.9471,432.6665,716.78,428.31" style="stroke:#181818;stroke-width:1.0;"/></g><!--link Auto to SendingData--><g id="link_Auto_SendingData"><path d="M147.32,561.02 C242.02,554.2 478.94,537.12 639.65,525.54 " fill="none" id="Auto-to-SendingData" style="stroke:#181818;stroke-width:1.0;"/><polygon fill="#181818" points="644.33,525.13,635.0672,521.7833,639.3428,525.4873,635.6388,529.7628,644.33,525.13" style="stroke:#181818;stroke-width:1.0;"/></g><!--link Auto to StartRiding--><g id="link_Auto_StartRiding"><path d="M147.35,545.6 C170.64,535.86 200.5,524.42 228,517 C275.71,504.12 587.42,456.75 729.45,435.47 " fill="none" id="Auto-StartRiding" style="stroke:#181818;stroke-width:1.0;"/></g><!--link StartRiding to Calendaring--><g id="link_StartRiding_Calendaring"><path d="M864.04,412.09 C902.03,404.81 951.68,396.31 996.14,392 C1170.68,375.06 1215.74,395.6 1390.58,382 C1436.69,378.41 1487.16,372.33 1531.27,366.28 " fill="none" id="StartRiding-Calendaring" style="stroke:#181818;stroke-width:1.0;"/></g><!--link CarManagement to Calendaring--><g id="link_CarManagement_Calendaring"><path d="M918.58,160.7 C944.41,170.98 969.57,185.51 988.14,206 C997.4,216.23 986.03,226.61 996.14,236 C1129.52,359.86 1219,282.25 1398.58,312 C1440.04,318.87 1485.48,325.6 1526.22,331.34 " fill="none" id="CarManagement-Calendaring" style="stroke:#181818;stroke-width:1.0;"/></g><!--link SendingData to AnalyticsService--><g id="link_SendingData_AnalyticsService"><path d="M828.86,549 C868.05,597.57 944.88,685.57 1027.14,740 C1049.24,754.63 1075.69,766.52 1099.71,775.58 " fill="none" id="SendingData-to-AnalyticsService" style="stroke:#181818;stroke-width:1.0;"/><polygon fill="#181818" points="1104.12,777.59,1097.0791,770.7034,1099.4337,775.8469,1094.2901,778.2015,1104.12,777.59" style="stroke:#181818;stroke-width:1.0;"/></g><!--link SendingData to ?????? ? ?? ?????? ? ????????????--><g id="link_SendingData_&#1047;&#1072;&#1087;&#1080;&#1089;&#1100; &#1074; &#1041;&#1044; &#1076;&#1072;&#1085;&#1085;&#1099;&#1093; &#1086; &#1090;&#1077;&#1089;&#1090;&#1080;&#1088;&#1086;&#1074;&#1072;&#1085;&#1080;&#1080;"><path d="M964.37,514 C983.23,514 1002.39,514 1021.03,514 " fill="none" id="SendingData-to-&#1047;&#1072;&#1087;&#1080;&#1089;&#1100; &#1074; &#1041;&#1044; &#1076;&#1072;&#1085;&#1085;&#1099;&#1093; &#1086; &#1090;&#1077;&#1089;&#1090;&#1080;&#1088;&#1086;&#1074;&#1072;&#1085;&#1080;&#1080;" style="stroke:#181818;stroke-width:1.0;"/><polygon fill="#181818" points="1025.8,514,1016.8,510,1020.8,514,1016.8,518,1025.8,514" style="stroke:#181818;stroke-width:1.0;"/></g><!--SRC=[ZLNTJXD15BxdAUQI9fO7s1WIWtebDq3YZJURTYaRofHi5urHabB4dqY2e8d6H1Jr0TRQXQNGzXNEl97dd9dTpcwt87yfCz-SyyrtldEcwQs78co9m6ziXABk1rujz5joRcuzSBSy0LzX1DSGmH3w-FSx_8BVuiNSdC0l1tv2h0u4Z17Jn-zOTU0S1X0vmcsBrPtjxLOG6kW7tB-61ECaQazr4HcfBenKXx7twbk-P2H_4dTVLgjPWDsC3EN3mnYYWobxJ2k160df92TC945435VgqCbozoWNvX_17pn0Mvnr9smLeX_0AKBxT3wBIYiztEjoRlo4MOVgFLmAk818g5TmXHVfSiY7JSyBbrtfDhp07F-8sn4UCqT8WdEE4PlBFv0DNtePNjEWYmruUyshRKY_vhlIule3GrwGY7WXpAtU41oIbFFoeoflJa4SYk706TUgHxKGh6A494atZgB5aMxpUUZNsgjUyDIlULdgr0EKQ1u_Zpb73mF4fXpPKaGbhr2q-PNbYZdnZNXHIcHKF66mATGK3lSIabgzHev76eErswXe7o9UB2oQ9U48NzQQEtLFxndskYHRdWnlm2wvmMquowFLUkkPh2vEhcRyQcrKCdviQ4Roaf7oc7qypFjP7HbnjGQb698CkrAz9Ji9zEiLdc8HHspL3fk1wpgc8lCfD21rAvNwhnOLnQMUI6NtsYYMI-rViGYSCWhjJvtDbiT8HsWeZcQnm8Gzkm7nzr97NdARdgoxWIyRHe1RN2ggh5yf8NjL4AmyUXwtCAlekxc2f9DYZBT23NE5ECFr2vw2kW0ymlOiVQbo_wk7RRHIhV6CEjIZDUQq0xMl3w-6RX2k-7M-xkHeQLib0hdbQNC1-mHx8jaXT96OVJ1KNMPTcETgdqnJ7A6c3wVxo-Bq1PDTwrcNYaOZ52U_sYVH10k32TGx4iVY1iaTGyyMcEWFc0L7vL0q6sBe2VePJYGsl1wtWasRqGaY-XDz1leLeW6EFH5P17IKDRUzsIuMA9rkt0vzgxNeDjFl4xc2PTupGnV_fXmbLV6-6xfsMwJlWUc2cnGkcMvyfi3RcRmX-Q05UUnLKHB7_6-wBkVXIIxx2JJPPlXz-i4svCeSxj1hdR6tX9i2L6VrYBsgSRdHaU4Axy0qqbPimYGR_4xnxNJiKLCuG_U1pwdFgUVHoCVmAMyj6Crm5xwl-AJ_0m00]--></g></svg>